<svg width="28" height="28" viewBox="0 0 28 28" fill="none" xmlns="http://www.w3.org/2000/svg">
<path d="M25.6666 21.0058C25.6666 21.6475 25.1463 22.1667 24.5058 22.1667H15.1608C14.8529 22.1667 14.5577 22.0444 14.34 21.8267C14.1223 21.609 14 21.3137 14 21.0058C14 20.698 14.1223 20.4027 14.34 20.185C14.5577 19.9673 14.8529 19.845 15.1608 19.845H24.5058C25.1475 19.845 25.6666 20.3642 25.6666 21.0058ZM25.6666 14C25.6666 14.6417 25.1463 15.1608 24.5058 15.1608H3.49415C3.18627 15.1608 2.89101 15.0385 2.67331 14.8208C2.45561 14.6031 2.33331 14.3079 2.33331 14C2.33331 13.6921 2.45561 13.3969 2.67331 13.1792C2.89101 12.9615 3.18627 12.8392 3.49415 12.8392H24.5058C25.1475 12.8392 25.6666 13.3595 25.6666 14ZM24.5058 8.155C24.8137 8.155 25.1089 8.0327 25.3266 7.815C25.5443 7.5973 25.6666 7.30204 25.6666 6.99417C25.6666 6.68629 25.5443 6.39103 25.3266 6.17333C25.1089 5.95564 24.8137 5.83333 24.5058 5.83333H10.4941C10.3417 5.83333 10.1908 5.86336 10.0499 5.9217C9.90908 5.98003 9.78111 6.06554 9.67331 6.17333C9.56552 6.28113 9.48001 6.4091 9.42168 6.54994C9.36334 6.69077 9.33331 6.84172 9.33331 6.99417C9.33331 7.14661 9.36334 7.29756 9.42168 7.4384C9.48001 7.57924 9.56552 7.70721 9.67331 7.815C9.78111 7.92279 9.90908 8.0083 10.0499 8.06664C10.1908 8.12497 10.3417 8.155 10.4941 8.155H24.5058Z" fill="white"/>
</svg>
